<svg xmlns="http://www.w3.org/2000/svg" viewBox="0 0 24 24" fill="currentColor">
  <path fill-rule="evenodd" clip-rule="evenodd" d="M12 22.0833C17.5689 22.0833 22.0833 17.5689 22.0833 12C22.0833 6.43113 17.5689 1.91667 12 1.91667C6.43113 1.91667 1.91667 6.43113 1.91667 12C1.91667 17.5689 6.43113 22.0833 12 22.0833ZM12 23C18.0751 23 23 18.0751 23 12C23 5.92487 18.0751 1 12 1C5.92487 1 1 5.92487 1 12C1 18.0751 5.92487 23 12 23Z" />
  <path d="M22.4601 11.8565C22.4601 12.0598 22.4421 12.2583 22.4298 12.4592C22.3552 12.2706 22.242 12.0246 22.2149 11.9188C22.1756 11.7581 21.9353 11.198 21.9353 11.198C21.9353 11.198 21.695 10.8782 21.5351 10.7978C21.376 10.7175 21.2555 10.5174 20.975 10.3583C20.6946 10.1976 20.5757 10.118 20.3362 10.118C20.0951 10.118 19.8565 9.79737 19.5752 9.63747C19.2948 9.47838 19.2554 9.55792 19.2554 9.55792C19.2554 9.55792 19.5752 10.0376 19.5752 10.1574C19.5752 10.2771 19.9344 10.4772 20.2961 10.3968C20.2961 10.3968 20.5355 10.8372 20.6552 10.9569C20.775 11.0766 20.615 11.1972 20.3756 11.3571C20.1353 11.5162 20.1755 11.4768 20.0541 11.5965C19.9344 11.7163 19.5351 11.918 19.4145 11.9967C19.2948 12.0762 18.8151 12.3165 18.5756 12.0762C18.4584 11.9606 18.4944 11.7171 18.4157 11.5563C18.3354 11.3964 17.4956 10.1565 17.0955 9.59728C17.0258 9.49888 16.8552 9.19547 16.7363 9.11756C16.6166 9.03638 17.0167 9.03638 17.0167 9.03638C17.0167 9.03638 17.0167 8.75593 16.9766 8.55666C16.9356 8.35657 17.0167 8.07694 17.0167 8.07694C17.0167 8.07694 16.6166 8.31639 16.4952 8.39675C16.3763 8.47712 16.2557 8.23767 16.0967 8.03676C15.9367 7.83749 15.776 7.5964 15.7367 7.39631C15.6965 7.19704 15.9367 7.11668 15.9367 7.11668L16.2959 6.91741C16.2959 6.91741 16.7363 6.83787 17.0167 6.87723C17.2964 6.91741 17.7359 6.95759 17.7359 6.95759C17.7359 6.95759 17.8556 6.67714 17.6957 6.55742C17.5366 6.43769 17.175 6.2376 17.0151 6.27779C16.856 6.31715 17.0946 6.0777 17.2939 5.91779L16.8511 5.83743C16.8511 5.83743 16.4485 6.03752 16.3279 6.0777C16.2082 6.11706 15.9999 6.19742 15.8392 6.39751C15.6801 6.5976 15.9031 6.87723 15.7432 6.95759C15.5841 7.03796 15.4759 7.07732 15.3553 7.11668C15.2356 7.15686 14.8551 7.11668 14.8551 7.11668C14.4418 7.11668 14.7067 7.4939 14.8141 7.62756L14.4943 7.23723L14.2573 6.67796C14.2573 6.67796 13.9162 6.43851 13.7563 6.35897C13.5964 6.27861 13.1035 5.99897 13.1035 5.99897L13.138 6.35897L13.6013 6.82803L13.6423 6.83869L13.8834 7.1585L13.3512 7.19868V6.88215C12.8493 6.76079 12.9805 6.63614 12.9239 6.5976C12.805 6.51806 12.527 6.31715 12.527 6.31715C12.527 6.31715 12.0563 6.39751 11.9358 6.43769C11.8153 6.47787 11.7816 6.5976 11.543 6.67714C11.3019 6.75751 11.1937 6.87723 11.1141 6.99696C11.0346 7.11668 10.7738 7.47668 10.6155 7.63658C10.4548 7.79731 10.158 7.75631 10.0382 7.75631C9.9177 7.75631 9.34039 7.5964 9.34039 7.5964V6.91823C9.34039 6.91823 9.4183 6.53774 9.37894 6.41801L9.72909 6.35897L10.3138 6.23842L10.4852 6.11788L10.7312 5.79807C10.7312 5.79807 10.4548 5.59798 10.6541 5.31835C10.75 5.18386 11.0953 5.15844 11.2552 5.03871C11.4143 4.91899 11.6562 4.83863 11.6562 4.83863C11.6562 4.83863 11.9366 4.59917 12.2163 4.31872C12.2163 4.31872 12.4163 4.19818 12.6558 4.11781C12.6558 4.11781 13.3364 4.71808 13.457 4.71808C13.5775 4.71808 14.017 4.43845 14.017 4.43845C14.017 4.43845 14.1368 4.07927 14.0974 3.95873C14.0572 3.839 13.8571 3.43883 13.8571 3.43883C13.8571 3.43883 13.7374 3.63891 13.6177 3.79882C13.498 3.95873 13.4176 4.15882 13.4176 4.15882C13.4176 4.15882 12.8575 4.12027 12.8182 4.00055C12.7772 3.88 12.6984 3.68238 12.6574 3.56347C12.6189 3.44293 12.2983 3.44703 12.0596 3.52739C11.8185 3.60775 12.0982 3.09605 12.0982 3.09605C12.0982 3.09605 12.3393 2.79428 12.4983 2.79428C12.6574 2.79428 13.0191 2.58927 13.1773 2.54991C13.3381 2.50973 13.8194 2.32686 14.0179 2.32686C14.218 2.32686 14.4582 2.41296 14.5788 2.41296C14.6993 2.41296 15.1782 2.41296 15.1782 2.41296L16.0171 2.34572C16.0171 2.34572 16.7379 2.61223 16.4968 2.77296C16.4968 2.77296 16.7781 2.94599 16.8978 3.06571C17.0102 3.17888 17.3005 2.96157 17.4669 2.8689C20.4592 4.74678 22.4601 8.06874 22.4601 11.8565ZM3.3771 5.59798C3.3771 5.75788 3.15898 5.79643 3.3771 6.19824C3.65592 6.71814 3.41647 6.95841 3.41647 6.95841C3.41647 6.95841 2.73584 7.43813 2.61611 7.5185C2.49639 7.59886 2.17657 8.0384 2.37584 7.91785C2.57593 7.79813 2.81538 7.6784 2.61611 7.99822C2.41602 8.31885 2.05603 8.83793 1.97649 9.03884C1.89694 9.23975 1.49677 9.71865 1.49677 9.95892C1.49677 10.1992 1.33686 10.6797 1.37704 10.8798C1.4041 11.0192 1.31554 11.4301 1.24583 11.599C1.29996 9.35045 2.05685 7.27823 3.30658 5.58322C3.34758 5.58732 3.3771 5.59798 3.3771 5.59798ZM4.6621 4.06451C5.6404 3.16165 6.78681 2.44166 8.0513 1.95456C7.92665 2.11447 7.77577 2.27848 7.77577 2.27848C7.77577 2.27848 7.49614 2.27766 6.97542 2.83856C6.45633 3.39864 6.57606 3.23874 6.45633 3.39782C6.33661 3.55691 6.37597 3.59791 6.09552 3.79882C5.81671 3.99809 5.69616 4.23836 5.69616 4.23836L5.2558 4.39827L4.89663 4.23836C4.89663 4.23836 4.57517 4.35891 4.61536 4.19818C4.62684 4.15554 4.64406 4.11125 4.6621 4.06451ZM9.45602 4.99771L9.29693 4.75826L9.45602 4.39827L9.84143 4.55243V3.83818L10.2096 3.63891L10.5155 4.07845L10.9862 4.59917L10.6738 4.83863L9.84062 4.99853V4.57457L9.45602 4.99771ZM14.6567 8.75757C14.7502 8.68377 15.056 8.87729 15.056 8.87729C15.056 8.87729 16.0557 9.07738 16.2156 9.19711C16.3763 9.31765 16.6559 9.39802 16.7363 9.51856C16.8166 9.63829 17.0955 9.99828 17.1348 10.118C17.1758 10.2377 17.3759 10.6789 17.4161 10.838C17.4563 10.9979 17.576 11.3981 17.6957 11.5982C17.8154 11.7991 18.4961 12.6782 18.7355 13.0783L19.4572 12.9586C19.4572 12.9586 19.376 13.3178 19.2964 13.4383C19.2169 13.5581 18.9766 13.8779 18.8569 14.0378C18.7363 14.1977 18.5773 14.4379 18.337 14.6372C18.0975 14.8365 18.0959 15.0366 17.977 15.1973C17.8573 15.3572 17.6965 15.7172 17.6965 15.7172C17.6965 15.7172 17.7769 16.5176 17.8163 16.6775C17.8556 16.8374 17.5366 17.2769 17.5366 17.2769L17.1758 17.6377L16.6936 18.2765L16.733 18.876C16.733 18.876 16.3689 19.1572 16.168 19.3163C15.9695 19.4754 16.0007 19.596 15.8408 19.7567C15.6817 19.9158 15.056 20.1962 14.8961 20.2364C14.7362 20.2766 13.8539 20.3963 13.8539 20.3963V20.0371L13.8358 19.637C13.8358 19.637 13.7145 19.1572 13.5939 18.9973C13.4734 18.8374 13.5258 18.5963 13.3258 18.3971C13.1257 18.197 13.0519 18.0379 13.0117 17.9165C12.9715 17.7968 13.0551 17.4376 13.0551 17.4376C13.0551 17.4376 13.2167 16.9973 13.2962 16.8374C13.3766 16.6775 13.2971 16.438 13.2167 16.2773C13.1363 16.1166 13.0978 15.7164 13.0978 15.5975C13.0978 15.4778 12.7763 15.2768 12.6566 15.1571C12.5369 15.0374 12.5771 14.8767 12.5771 14.7184C12.5771 14.5569 12.4573 14.1977 12.4967 13.9172C12.5369 13.6376 12.1375 13.8369 11.8973 13.9172C11.657 13.9976 11.4979 13.8369 11.4979 13.5966C11.4979 13.3563 11.0584 13.5572 10.7779 13.7163C10.4966 13.8762 10.1776 13.8762 9.8562 13.9968C9.5372 14.1165 9.37812 13.877 9.37812 13.877C9.37812 13.877 9.09684 13.6376 8.8984 13.517C8.69749 13.3973 8.4974 13.1579 8.33667 12.9578C8.17759 12.7569 7.77659 12.1566 7.73805 11.918C7.69787 11.6769 7.73805 11.5162 7.73805 11.2365C7.73805 10.9569 7.73805 10.797 7.77741 10.5969C7.81759 10.3968 7.93731 10.1565 8.05786 9.95646C8.17758 9.75637 8.61794 9.51692 8.73685 9.43656C8.85657 9.35701 9.13703 9.11757 9.13703 8.95684C9.13703 8.79693 9.29775 8.71739 9.37648 8.55666C9.45766 8.39675 9.73729 7.9974 10.0973 8.1573C10.0973 8.1573 10.4163 8.11794 10.536 8.07776C10.6557 8.03758 10.9755 7.91867 11.1338 7.83831C11.2937 7.75795 11.6923 7.72023 11.6923 7.72023C11.6923 7.72023 12.0071 7.84569 12.1269 7.84569C12.2466 7.84569 12.6369 7.77599 12.6369 7.77599C12.6369 7.77599 12.8173 8.35575 12.8173 8.4763C12.8173 8.59684 12.9371 8.71575 13.138 8.79611C13.3356 8.87729 14.2565 9.0782 14.6567 8.75757ZM19.2562 16.5979C19.2562 16.7176 19.2161 17.0383 19.1759 17.1982C19.1341 17.3581 19.0553 17.6385 19.016 17.7968C18.9758 17.9575 18.7757 18.2773 18.6568 18.3577C18.5371 18.4381 18.3362 18.6783 18.2173 18.7177C18.0975 18.7579 18.0164 18.4373 18.0565 18.2773C18.0975 18.1174 18.2968 17.6779 18.2968 17.6779C18.2968 17.6779 18.337 17.4385 18.3764 17.2777C18.4174 17.1186 18.8971 16.9186 18.8971 16.9186L19.2177 16.3183C19.2161 16.3175 19.2562 16.479 19.2562 16.5979ZM1.50661 14.2149C1.55827 14.228 1.63207 14.2657 1.73622 14.3584C1.8871 14.4896 1.97649 14.5569 2.17657 14.638C2.37584 14.7192 2.45621 14.8373 2.69648 14.9578C2.93675 15.0784 2.8572 14.9989 3.1762 15.358C3.49683 15.7172 3.45665 15.7172 3.53619 15.9181C3.61573 16.119 3.73628 16.3175 3.81664 16.4388C3.89701 16.5586 4.13646 16.6381 4.25618 16.7185C4.37591 16.7988 4.57599 16.8784 4.69572 16.8784C4.81626 16.8784 5.17626 17.2384 5.37635 17.2777C5.57644 17.3187 5.57644 17.7189 5.57644 17.7189L5.37635 18.2782L5.21562 18.8776L5.37635 19.3573C5.37635 19.3573 5.13526 19.5582 4.97699 19.5582C4.82939 19.5582 4.77936 19.6517 4.61782 19.6074C3.09255 18.183 1.98633 16.3199 1.50661 14.2149Z" />
</svg>