<svg width="48" height="48" viewBox="0 0 48 48" fill="none" xmlns="http://www.w3.org/2000/svg">
<g clip-path="url(#clip0_318_920)">
<path d="M41.5437 14.7736C37.4495 18.6674 31.7519 20.2421 26.2977 21.0295C21.4304 21.7453 16.3484 22.0459 11.9964 23.9356C7.4441 25.9254 4.58099 29.218 4.81004 34.3143C4.95319 37.3778 6.59948 40.3698 8.9186 42.6746C9.5628 43.1899 10.2213 43.6767 10.9085 44.1205C10.8655 44.0346 10.8226 43.9344 10.751 43.8485C7.98809 40.0549 5.84076 29.1894 20.2995 26.8273C23.2055 26.3549 26.1116 25.8682 29.0033 25.2096C31.5515 24.6227 36.1038 23.1911 36.6048 22.9192C37.02 22.6758 33.8992 26.1831 24.3364 28.9317C9.14765 33.2979 13.8145 45.9099 18.4527 47.3558C20.2279 47.7852 22.0889 48 23.9929 48C37.249 48 48 37.2633 48 24.0071C48 19.2401 46.6114 14.8022 44.2207 11.0802C43.5765 12.4831 42.6746 13.6856 41.5437 14.7736Z" fill="#5C5FFE"/>
<path d="M0 24.0072C0 26.6412 0.429466 29.1464 1.2025 31.5228C1.48882 28.9174 2.37638 26.4551 4.03698 24.365C7.04324 20.5428 11.7101 18.7534 16.5631 17.7942C21.4017 16.8494 26.5553 16.7349 31.5228 15.5324C34.2714 14.8738 37.0629 13.8002 39.2818 12.0394C41.1285 10.5506 41.9875 8.2887 40.0692 6.18431C39.3677 5.55443 38.6233 4.95318 37.8503 4.40919C39.2532 7.28661 38.1652 11.567 26.7844 12.6836C23.864 12.9842 20.9579 13.2562 18.0805 13.657C17.2359 13.7715 16.1909 13.929 15.1172 14.1151C15.1172 14.1151 16.062 12.9412 22.7331 11.4238C36.4474 8.33164 33.8849 2.36206 29.8193 0.715777C27.9582 0.25768 25.997 0 23.9928 0C10.7367 0.0143155 0 10.751 0 24.0072Z" fill="#5C5FFE"/>
</g>
<defs>
<clipPath id="clip0_318_920">
<rect width="48" height="48" fill="white"/>
</clipPath>
</defs>
</svg>
