<svg xmlns="http://www.w3.org/2000/svg" viewBox="0 0 24 24" fill="currentColor">
  <path d="M22.9091 0H14.1818C13.5793 0 13.0909 0.488438 13.0909 1.09092C13.0909 1.69341 13.5793 2.18184 14.1818 2.18184H20.2754L9.04683 13.4105C8.62078 13.8365 8.62078 14.5272 9.04683 14.9532C9.25978 15.1662 9.53897 15.2727 9.81816 15.2727C10.0973 15.2727 10.3766 15.1663 10.5896 14.9532L21.8182 3.72459V9.8182C21.8182 10.4207 22.3066 10.9091 22.9091 10.9091C23.5116 10.9091 24.0001 10.4207 24.0001 9.8182V1.09092C24 0.488438 23.5116 0 22.9091 0Z" />
  <path d="M18.5454 10.9091C17.943 10.9091 17.4545 11.3975 17.4545 12V21.8182H2.1818V6.54544H12C12.6025 6.54544 13.0909 6.05701 13.0909 5.45452C13.0909 4.85204 12.6025 4.36365 12 4.36365H1.09092C0.488438 4.36365 0 4.85208 0 5.45457V22.9091C0 23.5116 0.488438 24 1.09092 24H18.5455C19.148 24 19.6364 23.5116 19.6364 22.9091V12C19.6364 11.3975 19.1479 10.9091 18.5454 10.9091Z" />
</svg>